<?xml version="1.0" standalone="no"?>
<!DOCTYPE svg PUBLIC "-//W3C//DTD SVG 20010904//EN"
 "http://www.w3.org/TR/2001/REC-SVG-20010904/DTD/svg10.dtd">
<svg version="1.0" xmlns="http://www.w3.org/2000/svg"
 width="311.000000pt" height="311.000000pt" viewBox="0 0 311.000000 311.000000"
 preserveAspectRatio="xMidYMid meet">

<g transform="translate(0.000000,311.000000) scale(0.100000,-0.100000)"
fill="#000000" stroke="none">
<path d="M0 2850 l0 -260 90 0 90 0 0 175 0 175 1380 0 1380 0 0 -1385 0
-1385 -1380 0 -1380 0 0 175 0 175 -90 0 -90 0 0 -260 0 -260 1555 0 1555 0 0
1555 0 1555 -1555 0 -1555 0 0 -260z"/>
<path d="M900 1555 l0 -966 128 3 127 3 3 388 2 387 226 -2 226 -3 206 -385
207 -385 138 -3 c75 -1 137 1 137 6 0 5 -102 192 -226 416 -124 224 -224 409
-222 410 2 2 35 20 75 40 136 71 244 210 274 353 25 125 1 314 -56 423 -49 94
-180 195 -306 235 -113 35 -242 45 -610 45 l-329 0 0 -965z m817 731 c108 -34
196 -120 225 -219 6 -23 12 -82 12 -132 0 -76 -4 -99 -26 -146 -44 -96 -129
-164 -243 -193 -45 -12 -114 -16 -292 -16 l-233 0 0 366 0 366 253 -5 c196 -3
263 -8 304 -21z"/>
</g>
</svg>
